<svg width="42" height="55" viewBox="0 0 42 55" fill="none" xmlns="http://www.w3.org/2000/svg">
<g clip-path="url(#clip0_0_189)">
<path d="M41.5059 40.5041C41.5059 40.5041 35.4339 34.4664 34.7474 33.6567C34.0608 32.847 33.6514 32.9809 32.0956 34.2943C30.5398 35.6077 22.8176 38.5723 16.8149 33.3953C10.8122 28.2183 14.0371 18.266 14.0371 18.266C10.0749 23.3672 7.6028 29.4893 6.90065 35.9392C7.81396 25.6872 14.0371 18.266 14.0371 18.266C18.0872 8.91941 28.6502 11.9988 28.9525 12.0881C29.3745 12.2539 31.7177 13.1911 32.6562 14.1602C33.5947 15.1292 34.1112 14.4726 34.7159 13.8924C35.4465 12.9615 41.424 7.09598 41.424 7.09598C41.424 7.09598 42.2744 6.31817 41.191 5.57222C38.2525 3.34455 34.9061 1.73002 31.3461 0.82239C25.1166 -0.950028 16.1157 0.229467 10.3901 4.27797C11.7492 4.15127 13.116 4.13209 14.478 4.2206C13.1445 4.14887 11.8075 4.1787 10.4783 4.30984C9.94923 4.36085 2.43483 9.28281 0.507411 18.6549C-2.23884 32.1457 6.88804 40.7655 6.88804 40.7655C22.2948 54.1543 39.4147 44.6674 41.5311 42.2128C41.673 42.1201 41.7892 41.9924 41.8689 41.8417C41.9486 41.691 41.989 41.5223 41.9865 41.3514C41.984 41.1805 41.9386 41.0131 41.8545 40.8648C41.7704 40.7166 41.6505 40.5925 41.5059 40.5041ZM27.9951 10.4687C25.9716 7.79511 23.115 5.89212 19.8886 5.06854C22.8805 5.9165 25.948 7.51677 27.9951 10.4687ZM6.90693 36.0858C6.90693 36.1368 6.90693 36.1815 6.90693 36.2261C6.90693 36.2707 6.88175 36.1305 6.88175 36.0858H6.90693Z" fill="#E86065"/>
<path d="M28.8774 12.0435C28.8774 12.0435 31.6237 13.0764 32.6567 14.1411C33.6519 15.0975 34.1117 14.4535 34.7164 13.8733C35.447 12.9425 41.4245 7.07694 41.4245 7.07694C41.4245 7.07694 42.2749 6.29912 41.1915 5.55318C38.253 3.32551 34.9066 1.71097 31.3465 0.803347C25.1171 -0.96907 16.1162 0.210425 10.3906 4.25893C10.3906 4.25893 24.2479 2.86907 28.8774 12.0435Z" fill="url(#paint0_linear_0_189)"/>
<path d="M28.9672 12.0756C28.9672 12.0756 18.1459 8.76669 14.0392 18.2472C14.0392 18.2472 5.7815 28.0911 6.89008 40.7658C6.89008 40.7658 -2.2305 32.1396 0.509451 18.6361C2.43687 9.26397 9.95757 4.34201 10.4804 4.291C11.0032 4.24 24.0038 2.64609 28.9672 12.0756Z" fill="url(#paint1_linear_0_189)"/>
<path d="M14.0414 18.2471C14.0414 18.2471 10.8164 28.1994 16.8191 33.3764C22.8218 38.5534 30.5441 35.5696 32.0999 34.2753C33.6556 32.9811 34.0651 32.8536 34.7516 33.6378C35.4382 34.422 41.5102 40.4852 41.5102 40.4852C41.6534 40.5757 41.7714 40.7016 41.8533 40.8511C41.9351 41.0005 41.9781 41.1686 41.9781 41.3395C41.9781 41.5104 41.9351 41.6785 41.8533 41.8279C41.7714 41.9774 41.6534 42.1033 41.5102 42.1938C39.419 44.6484 22.299 54.1353 6.8671 40.7466C6.8923 40.7657 5.25461 29.8889 14.0414 18.2471Z" fill="url(#paint2_linear_0_189)"/>
<path d="M17.4817 43.652C18.8609 43.652 19.979 42.5265 19.979 41.138C19.979 39.7496 18.8609 38.624 17.4817 38.624C16.1025 38.624 14.9844 39.7496 14.9844 41.138C14.9844 42.5265 16.1025 43.652 17.4817 43.652Z" fill="white"/>
<path d="M24.5207 43.652C25.9 43.652 27.018 42.5265 27.018 41.138C27.018 39.7496 25.9 38.624 24.5207 38.624C23.1415 38.624 22.0234 39.7496 22.0234 41.138C22.0234 42.5265 23.1415 43.652 24.5207 43.652Z" fill="white"/>
<path d="M31.5559 43.652C32.9351 43.652 34.0532 42.5265 34.0532 41.138C34.0532 39.7496 32.9351 38.624 31.5559 38.624C30.1767 38.624 29.0586 39.7496 29.0586 41.138C29.0586 42.5265 30.1767 43.652 31.5559 43.652Z" fill="white"/>
</g>
<path d="M18.7221 46.0896C18.7221 46.0896 19.5405 49.255 13.042 51.1069C12.0266 51.7356 13.0252 52.2776 13.0252 52.2776C13.0252 52.2776 25.9013 56.2721 31.5063 45.6668L18.7221 46.0896Z" fill="#E45156"/>
<defs>
<linearGradient id="paint0_linear_0_189" x1="41.5718" y1="6.05732" x2="13.5382" y2="4.18935" gradientUnits="userSpaceOnUse">
<stop stop-color="#FF8E93"/>
<stop offset="1" stop-color="#FB5F65"/>
</linearGradient>
<linearGradient id="paint1_linear_0_189" x1="11.333" y1="8.63717" x2="15.1218" y2="62.5571" gradientUnits="userSpaceOnUse">
<stop stop-color="#FB5F65"/>
<stop offset="1" stop-color="#C64E53"/>
</linearGradient>
<linearGradient id="paint2_linear_0_189" x1="10.0946" y1="-14.9525" x2="11.0621" y2="43.0067" gradientUnits="userSpaceOnUse">
<stop stop-color="#C64E53"/>
<stop offset="1" stop-color="#E65056"/>
</linearGradient>
<clipPath id="clip0_0_189">
<rect width="42" height="47.766" fill="white"/>
</clipPath>
</defs>
</svg>
